<?xml version="1.0" encoding="UTF-8" standalone="no"?>
<svg width="300" height="50" xmlns="http://www.w3.org/2000/svg">
<path d="M 0 23.71035728623 C 0.3030303030303 25.679947812124, 2.4242424242424 41.813026896829, 3.030303030303 43.406262545163 C 3.6363636363636 44.999498193497, 5.4545454545455 42.778502609394, 6.0606060606061 39.64271376957 C 6.6666666666667 36.506924929747, 8.4848484848485 11.567141710157, 9.0909090909091 12.048374146929 C 9.6969696969697 12.529606583701, 11.515151515152 44.153954235247, 12.121212121212 44.455038137294 C 12.727272727273 44.756122039342, 14.545454545455 18.817242071457, 15.151515151515 15.059213167403 C 15.757575757576 11.301184263348, 17.575757575758 3.9401846647933, 18.181818181818 6.8747490967483 C 18.787878787879 9.8093135287033, 20.606060606061 42.727318346046, 21.212121212121 44.404857486953 C 21.818181818182 46.08239662786, 23.636363636364 26.521979124849, 24.242424242424 23.650140505821 C 24.848484848485 20.778301886792, 26.666666666667 14.437474909675, 27.272727272727 15.686471296668 C 27.878787878788 16.935467683661, 29.69696969697 36.140606182256, 30.30303030303 36.140104375753 C 30.909090909091 36.139602569249, 32.727272727273 17.012244078683, 33.333333333333 15.681453231634 C 33.939393939394 14.350662384585, 35.757575757576 20.287535126455, 36.363636363636 22.832195905259 C 36.969696969697 25.376856684063, 38.787878787879 43.071557607387, 39.393939393939 41.128061019671 C 40 39.184564431955, 41.818181818182 5.0040144520273, 42.424242424242 3.3972300281012 C 43.030303030303 1.790445604175, 44.848484848485 22.22501003613, 45.454545454545 25.060216780409 C 46.060606060606 27.895423524689, 47.878787878788 30.159574468085, 48.484848484848 31.749297470895 C 49.090909090909 33.339020473705, 50.909090909091 39.295463669209, 51.515151515152 40.957446808511 C 52.121212121212 42.619429947812, 53.939393939394 51.148133279807, 54.545454545455 48.36912886391 C 55.151515151515 45.590124448013, 56.969696969697 15.358289843436, 57.575757575758 13.167402649538 C 58.181818181818 10.97651545564, 60 27.430248896026, 60.606060606061 26.46025692493 C 61.212121212121 25.490264953834, 63.030303030303 3.5653352067443, 63.636363636364 3.4674829385789 C 64.242424242424 3.3696306704135, 66.060606060606 21.759333600963, 66.666666666667 25.481734243276 C 67.272727272727 29.204134885588, 69.090909090909 39.528301886792, 69.69696969697 40.691489361702 C 70.30303030303 41.854676836612, 72.121212121212 39.816840626255, 72.727272727273 37.113608992373 C 73.333333333333 34.410377358491, 75.151515151515 16.290646326776, 75.757575757576 13.659173022882 C 76.363636363636 11.027699718988, 78.181818181818 9.6392011240466, 78.787878787879 10.798875953432 C 79.393939393939 11.958550782818, 81.212121212121 22.367021276596, 81.818181818182 25.25592131674 C 82.424242424242 28.144821356885, 84.242424242424 38.684263348053, 84.848484848485 39.687876354878 C 85.454545454545 40.691489361702, 87.272727272727 37.063428342031, 87.878787878788 35.292051384986 C 88.484848484848 33.520674427941, 90.30303030303 20.723604977921, 90.909090909091 21.974106784424 C 91.515151515152 23.224608590927, 93.333333333333 46.628863910076, 93.939393939394 47.79706945002 C 94.545454545455 48.965274989964, 96.363636363636 34.312023283822, 96.969696969697 33.656162183862 C 97.575757575758 33.000301083902, 99.393939393939 44.233741469289, 100 41.238458450422 C 100.60606060606 38.243175431554, 102.42424242424 7.4337615415496, 103.0303030303 3.7033319951827 C 103.63636363636 -0.027097551184262, 105.45454545455 1.7347450822963, 106.06060606061 3.9341629867523 C 106.66666666667 6.1335808912084, 108.48484848485 22.538639100763, 109.09090909091 25.697511039743 C 109.69696969697 28.856382978723, 111.51515151515 36.333299879566, 112.12121212121 35.522882376556 C 112.72727272727 34.712464873545, 114.54545454545 18.007828181453, 115.15151515152 17.593336009635 C 115.75757575758 17.178843837816, 117.57575757576 30.819450020072, 118.18181818182 31.37796065837 C 118.78787878788 31.936471296668, 120.60606060606 25.1470293055, 121.21212121212 23.178442392613 C 121.81818181818 21.209855479727, 123.63636363636 10.987555198715, 124.24242424242 11.692091529506 C 124.84848484848 12.396627860297, 126.66666666667 31.098454435969, 127.27272727273 30.223805700522 C 127.87878787879 29.349156965074, 129.69696969697 5.5710558008832, 130.30303030303 2.9456041750301 C 130.90909090909 0.32015254917703, 132.72727272727 3.8694299478121, 133.33333333333 3.9692894419912 C 133.93939393939 4.0691489361702, 135.75757575758 1.8190485748695, 136.36363636364 3.9441991168205 C 136.9696969697 6.0693496587716, 138.78787878788 23.90004014452, 139.39393939394 25.220794861501 C 140 26.541549578483, 141.81818181818 18.554295463669, 142.42424242424 17.151746286632 C 143.0303030303 15.749197109595, 144.84848484848 8.6436170212766, 145.45454545455 11.195303091128 C 146.06060606061 13.74698916098, 147.87878787879 43.644620634283, 148.48484848485 42.668606985147 C 149.09090909091 41.69259333601, 150.90909090909 3.0901244480128, 151.51515151515 1.4351665997591 C 152.12121212121 -0.21979124849458, 153.93939393939 24.315034122842, 154.54545454545 26.119028502609 C 155.15151515152 27.923022882377, 156.9696969697 21.517964672822, 157.57575757576 19.475110397431 C 158.18181818182 17.432256122039, 160 4.9207145724609, 160.60606060606 5.6904857486953 C 161.21212121212 6.4602569249297, 163.0303030303 23.356583701325, 163.63636363636 27.172822159775 C 164.24242424242 30.989060618226, 166.06060606061 44.598052990767, 166.66666666667 43.8528703332 C 167.27272727273 43.107687675632, 169.09090909091 22.420714572461, 169.69696969697 19.720995584103 C 170.30303030303 17.021276595745, 172.12121212121 15.504817342433, 172.72727272727 16.855680449619 C 173.33333333333 18.206543556804, 175.15151515152 32.902448815737, 175.75757575758 33.229626655961 C 176.36363636364 33.556804496186, 178.18181818182 20.224809313529, 178.78787878788 20.127458851867 C 179.39393939394 20.030108390205, 181.21212121212 29.471095945403, 181.81818181818 32.256122039342 C 182.42424242424 35.04114813328, 184.24242424242 48.523183460458, 184.84848484848 47.977719791248 C 185.45454545455 47.432256122039, 187.27272727273 26.878763548776, 187.87878787879 26.80148534725 C 188.48484848485 26.724207145725, 190.30303030303 48.841830590124, 190.90909090909 47.204937775994 C 191.51515151515 45.568044961863, 193.33333333333 12.855780810919, 193.93939393939 10.432557205941 C 194.54545454545 8.0093336009635, 196.36363636364 20.154556403051, 196.9696969697 22.972701726214 C 197.57575757576 25.790847049378, 199.39393939394 39.570453633079, 200 38.614010437575 C 200.60606060606 37.657567242071, 202.42424242424 12.269670814934, 203.0303030303 13.408269771176 C 203.63636363636 14.546868727419, 205.45454545455 47.673123243677, 206.06060606061 50 C 206.66666666667 52.326876756323, 208.48484848485 41.527498996387, 209.09090909091 36.677037334404 C 209.69696969697 31.826575672421, 211.51515151515 3.2747892412686, 212.12121212121 1.4953833801686 C 212.72727272727 -0.28402248093136, 214.54545454545 18.003311922923, 215.15151515152 18.882978723404 C 215.75757575758 19.762645523886, 217.57575757576 9.565435568045, 218.18181818182 10.292051384986 C 218.78787878788 11.018667201927, 220.60606060606 24.686872741871, 221.21212121212 26.149136892814 C 221.81818181818 27.611401043758, 223.63636363636 23.057507025291, 224.24242424242 24.91469289442 C 224.84848484848 26.771878763549, 226.66666666667 47.029807306303, 227.27272727273 44.720995584103 C 227.87878787879 42.412183861903, 229.69696969697 6.0141509433962, 230.30303030303 1.8265756724207 C 230.90909090909 -2.3609995985548, 232.72727272727 -0.41800481734243, 233.33333333333 2.8452428743477 C 233.93939393939 6.1084905660377, 235.75757575758 30.23083099157, 236.36363636364 34.459052589322 C 236.9696969697 38.687274187073, 238.78787878788 47.091027699719, 239.39393939394 45.127458851867 C 240 43.163890004014, 241.81818181818 16.318747490967, 242.42424242424 14.823364110799 C 243.0303030303 13.32798073063, 244.84848484848 30.69851465275, 245.45454545455 30.173625050181 C 246.06060606061 29.648735447611, 247.87878787879 12.063428342031, 248.48484848485 9.5744680851064 C 249.09090909091 7.0855078281815, 250.90909090909 5.2172822159775, 251.51515151515 5.2840224809314 C 252.12121212121 5.3507627458852, 253.93939393939 10.596146126054, 254.54545454545 10.241870734645 C 255.15151515152 9.8875953432356, 256.9696969697 -1.4733038940185, 257.57575757576 1.7412685668406 C 258.18181818182 4.9558410276997, 260 41.457246085909, 260.60606060606 42.387595343236 C 261.21212121212 43.317944600562, 263.0303030303 15.283520674428, 263.63636363636 11.044761140104 C 264.24242424242 6.8060016057808, 266.06060606061 -2.2475913287836, 266.66666666667 0 C 267.27272727273 2.2475913287836, 269.09090909091 31.399036531513, 269.69696969697 33.520674427941 C 270.30303030303 35.642312324368, 272.12121212121 19.986953030911, 272.72727272727 21.216378964271 C 273.33333333333 22.445804897631, 275.15151515152 43.866419108792, 275.75757575758 45.814933761542 C 276.36363636364 47.763448414291, 278.18181818182 42.122641509434, 278.78787878788 40.70152549177 C 279.39393939394 39.280409474107, 281.21212121212 33.728924126857, 281.81818181818 31.603773584906 C 282.42424242424 29.478623042955, 284.24242424242 19.417402649538, 284.84848484848 19.45002007226 C 285.45454545455 19.482637494982, 287.27272727273 32.348454435969, 287.87878787879 31.929947812124 C 288.48484848485 31.511441188278, 290.30303030303 16.962565234845, 290.90909090909 15.264953833802 C 291.51515151515 13.567342432758, 293.33333333333 14.161983139301, 293.93939393939 14.953833801686 C 294.54545454545 15.745684464071, 296.36363636364 22.293255720594, 296.9696969697 23.183460457648 C 297.57575757576 24.073665194701, 299.69696969697 23.788639100763, 300 23.85588117222 " fill="none" stroke="black" stroke-width="1"/>
</svg>