<?xml version="1.0" encoding="UTF-8" standalone="no"?>
<svg width="300" height="50" xmlns="http://www.w3.org/2000/svg">
<polyline points="0,23.253483010925 3.030303030303,22.581938458454 6.0606060606061,43.234439210183 9.0909090909091,42.202064748923 12.121212121212,11.366142126892 15.151515151515,38.017440112258 18.181818181818,12.89966923925 21.212121212121,43.996191239852 24.242424242424,3.638368246968 27.272727272727,43.224416157161 30.30303030303,0.68156760549263 33.333333333333,41.299989976947 36.363636363636,28.816277438108 39.393939393939,42.678159767465 42.424242424242,44.086398717049 45.454545454545,24.87220607397 48.484848484848,1.8943570211486 51.515151515152,31.948481507467 54.545454545455,47.153452941766 57.575757575758,0 60.606060606061,6.279442718252 63.636363636364,29.668236944973 66.666666666667,49.634158564699 69.69696969697,17.580435000501 72.727272727273,10.539240252581 75.757575757576,0.24055327252681 78.787878787879,7.8229928836324 81.818181818182,18.868397313822 84.848484848485,12.032675152852 87.878787878788,45.569810564298 90.909090909091,8.1236844742909 93.939393939394,15.134810063145 96.969696969697,32.254184624637 100,20.161371153653 103.0303030303,0.90207477197554 106.06060606061,40.488122682169 109.09090909091,9.2763355718152 112.12121212121,43.770672546858 115.15151515152,1.3280545254084 118.18181818182,4.5404430189436 121.21212121212,16.352611005312 124.24242424242,10.053122181016 127.27272727273,33.471985566804 130.30303030303,49.74441214794 133.33333333333,20.266613210384 136.36363636364,43.745614914303 139.39393939394,34.083391801143 142.42424242424,6.68036483913 145.45454545455,46.91791119575 148.48484848485,11.010323744613 151.51515151515,48.556680364839 154.54545454545,15.089706324546 157.57575757576,3.3426881828205 160.60606060606,31.44732885637 163.63636363636,16.056930941165 166.66666666667,42.182018642879 169.69696969697,19.159065851458 172.72727272727,4.665731181718 175.75757575758,18.08659917811 178.78787878788,4.1545554775985 181.81818181818,42.813470983262 184.84848484848,17.05923624336 187.87878787879,30.259597073269 190.90909090909,29.603087100331 193.93939393939,21.79011726972 196.9696969697,46.421770071164 200,33.45193946076 203.0303030303,1.1827202565902 206.06060606061,17.395008519595 209.09090909091,39.135010524206 212.12121212121,46.241355116769 215.15151515152,22.637065250075 218.18181818182,41.174701814173 221.21212121212,13.766663325649 224.24242424242,37.561391199759 227.27272727273,21.920416959006 230.30303030303,25.223012929738 233.33333333333,29.968928535632 236.36363636364,12.734288864388 239.39393939394,0.18041495439511 242.42424242424,36.303498045505 245.45454545455,16.823694497344 248.48484848485,44.948381276937 251.51515151515,12.438608800241 254.54545454545,27.623534128496 257.57575757576,9.8777187531322 260.60606060606,25.278139721359 263.63636363636,39.961912398517 266.66666666667,7.2366442818483 269.69696969697,7.8079583040994 272.72727272727,26.631251879322 275.75757575758,20.266613210384 278.78787878788,29.552971835221 281.81818181818,46.456850756741 284.84848484848,7.0211486418763 287.87878787879,50 290.90909090909,0.090207477197559 293.93939393939,13.315625939661 296.9696969697,31.667836022853 300,7.8179813571214" fill="none" stroke="black" stroke-width="1"/>
</svg>