<?xml version="1.0" encoding="UTF-8" standalone="no"?>
<svg width="300" height="50" xmlns="http://www.w3.org/2000/svg">
<polyline points="0,25.086360305663 3.030303030303,18.884120171674 6.0606060606061,32.738406783209 9.0909090909091,19.496493248194 12.121212121212,29.901601591123 15.151515151515,33.314142154297 18.181818181818,0.84266722495551 21.212121212121,28.666387522244 24.242424242424,36.459750863603 27.272727272727,49.863917094107 30.30303030303,33.319376112216 33.333333333333,20.276352978122 36.363636363636,30.315084266722 39.393939393939,19.020203077567 42.424242424242,42.295613943264 45.454545454545,46.72354234272 48.484848484848,27.881293834398 51.515151515152,7.5944729404376 54.545454545455,23.479535224537 57.575757575758,1.8004815241285 60.606060606061,16.078718727101 63.636363636364,38.945880875118 66.666666666667,16.581178687323 69.69696969697,49.063121532503 72.727272727273,14.822568826547 75.757575757576,20.370564220664 78.787878787879,9.6985240238669 81.818181818182,19.114414320109 84.848484848485,43.761122160578 87.878787878788,18.549146864859 90.909090909091,12.514393384277 93.939393939394,29.629435779336 96.969696969697,19.224327436407 100,10.200983984089 103.0303030303,3.2764576572804 106.06060606061,20.260651104365 109.09090909091,12.236993614571 112.12121212121,31.152517533759 115.15151515152,35.255940542238 118.18181818182,4.0720192609651 121.21212121212,38.113681566 124.24242424242,24.201821417356 127.27272727273,34.920967235423 130.30303030303,34.408039359364 133.33333333333,19.784360933738 136.36363636364,40.652151156705 139.39393939394,18.695697686591 142.42424242424,38.589971736627 145.45454545455,23.092222338532 148.48484848485,5.6526745524966 151.51515151515,20.689835653721 154.54545454545,47.608081231027 157.57575757576,43.169684915733 160.60606060606,2.4442583481629 163.63636363636,35.182665131372 166.66666666667,16.827174709515 169.69696969697,12.948811891552 172.72727272727,22.108238249764 175.75757575758,18.125196273422 178.78787878788,37.009316445096 181.81818181818,5.4380822778185 184.84848484848,33.329844028054 187.87878787879,50 190.90909090909,7.0292054851879 193.93939393939,38.391081335706 196.9696969697,47.383021040511 200,4.6529885899717 203.0303030303,2.8263372762483 206.06060606061,1.2456819847168 209.09090909091,35.125091594264 212.12121212121,35.140793468021 215.15151515152,6.4534701141003 218.18181818182,49.544645661049 221.21212121212,36.454516905684 224.24242424242,23.730765204648 227.27272727273,33.319376112216 230.30303030303,28.750130848948 233.33333333333,8.6674343138281 236.36363636364,8.4109703757982 239.39393939394,33.062912174186 242.42424242424,40.856275515545 245.45454545455,12.299801109599 248.48484848485,10.483617711714 251.51515151515,4.113890924317 254.54545454545,0 257.57575757576,32.382497644719 260.60606060606,24.981681147284 263.63636363636,1.5230817544227 266.66666666667,40.694022820057 269.69696969697,23.458599392861 272.72727272727,36.553962106145 275.75757575758,17.204019679682 278.78787878788,15.963571652884 281.81818181818,21.333612477756 284.84848484848,27.828954255208 287.87878787879,22.977075264315 290.90909090909,4.5221396419973 293.93939393939,34.313828116822 296.9696969697,23.610384172511 300,36.852297707526" fill="none" stroke="black" stroke-width="1" pathLength="1000" stroke-dasharray="1000" stroke-dashoffset="1000">
<animate attributeName="stroke-dashoffset" from="1000" to="0" dur="1s" fill="freeze"/>
</polyline>
</svg>